<svg xmlns="http://www.w3.org/2000/svg" xmlns:xlink="http://www.w3.org/1999/xlink" width="264" zoomAndPan="magnify" viewBox="0 0 198 112.499997" height="150" preserveAspectRatio="xMidYMid meet" version="1.2"><defs><clipPath id="6f945ccb99"><path d="M 0.4375 33 L 58 33 L 58 75 L 0.4375 75 Z M 0.4375 33 "/></clipPath></defs><g id="d13a8dd5d7"><g clip-rule="nonzero" clip-path="url(#6f945ccb99)"><path style=" stroke:none;fill-rule:nonzero;fill:#c9c9c9;fill-opacity:1;" d="M 17.042969 33.914062 L 0.328125 44.789062 L 11.886719 54.011719 L 28.742188 43.644531 Z M 0.328125 63.238281 L 17.042969 74.113281 L 28.742188 64.386719 L 11.886719 54.011719 Z M 28.742188 64.382812 L 40.4375 74.113281 L 57.15625 63.238281 L 45.597656 54.015625 L 28.742188 64.386719 Z M 57.15625 44.789062 L 40.4375 33.914062 L 28.742188 43.644531 L 45.597656 54.011719 Z M 57.15625 44.789062 "/></g><path style=" stroke:none;fill-rule:nonzero;fill:#c9c9c9;fill-opacity:1;" d="M 28.777344 66.476562 L 17.042969 76.175781 L 12.023438 72.910156 L 12.023438 76.574219 L 28.777344 86.582031 L 45.527344 76.574219 L 45.527344 72.914062 L 40.507812 76.179688 Z M 28.777344 66.476562 "/><path style=" stroke:none;fill-rule:nonzero;fill:#c9c9c9;fill-opacity:1;" d="M 72.117188 49.847656 L 73.21875 49.847656 C 75.824219 49.847656 79.402344 50.15625 79.402344 59.160156 C 79.402344 68.734375 75.78125 69.042969 73.21875 69.042969 L 72.117188 69.042969 Z M 65.667969 74.09375 L 73.394531 74.09375 C 75.648438 74.09375 78.828125 74.09375 81.433594 72.074219 C 84.613281 69.65625 86.25 64.738281 86.25 59.246094 C 86.25 44.839844 77.105469 44.796875 72.601562 44.796875 L 65.667969 44.796875 Z M 88.46875 52.441406 L 88.46875 74.09375 L 94.519531 74.09375 L 94.519531 64.738281 C 94.519531 63.070312 94.519531 58.0625 98.980469 58.0625 C 99.199219 58.0625 99.464844 58.0625 99.992188 58.152344 L 99.992188 52.265625 C 99.6875 52.175781 99.378906 52.132812 98.933594 52.132812 C 95.402344 52.132812 94.339844 55.824219 93.8125 57.667969 L 93.8125 52.441406 Z M 109.695312 56.171875 C 111.550781 56.171875 112.257812 57.667969 112.257812 63.246094 C 112.257812 69.042969 111.460938 70.316406 109.695312 70.316406 C 107.882812 70.316406 107.089844 69 107.089844 63.246094 C 107.089844 57.929688 107.707031 56.171875 109.652344 56.171875 Z M 109.695312 51.957031 C 103.203125 51.957031 100.820312 56.480469 100.820312 63.246094 C 100.820312 70.230469 103.378906 74.535156 109.652344 74.535156 C 116.011719 74.535156 118.527344 70.183594 118.527344 63.246094 C 118.527344 56.480469 116.144531 51.957031 109.695312 51.957031 M 126.285156 61.136719 C 126.285156 59.203125 126.285156 56.128906 129.023438 56.128906 C 131.363281 56.128906 131.539062 59.160156 131.539062 62.980469 C 131.539062 67.550781 131.320312 70.230469 128.847656 70.230469 C 126.285156 70.230469 126.285156 68.382812 126.285156 65.265625 Z M 120.324219 52.441406 L 120.324219 81.429688 L 126.285156 81.429688 L 126.285156 72.515625 C 126.945312 73.214844 128.050781 74.402344 130.4375 74.402344 C 137.371094 74.402344 137.8125 66.054688 137.8125 62.980469 C 137.8125 59.335938 137.105469 55.953125 134.984375 53.800781 C 133.925781 52.746094 132.292969 52.132812 130.832031 52.132812 C 127.875 52.132812 126.679688 54.285156 125.929688 55.691406 L 125.929688 52.441406 Z M 145.578125 60.082031 C 145.578125 58.984375 145.578125 57.886719 146.285156 57.050781 C 146.726562 56.480469 147.433594 56.128906 148.226562 56.128906 C 149.949219 56.128906 150.878906 57.578125 150.878906 63.289062 C 150.878906 68.867188 150.039062 70.359375 148.140625 70.359375 C 145.578125 70.359375 145.578125 67.550781 145.578125 65.089844 Z M 139.613281 44.796875 L 139.613281 74.09375 L 143.191406 74.09375 C 143.679688 72.558594 143.898438 72.121094 144.339844 71.285156 C 144.871094 72.382812 145.886719 74.535156 149.375 74.535156 C 150.523438 74.535156 151.714844 74.3125 152.910156 73.699219 C 156.882812 71.636719 157.148438 65.132812 157.148438 63.113281 C 157.148438 57.886719 155.472656 52.132812 150.125 52.132812 C 147.519531 52.132812 146.328125 53.539062 145.578125 54.460938 L 145.578125 44.796875 Z M 167.546875 56.171875 C 169.398438 56.171875 170.109375 57.667969 170.109375 63.246094 C 170.109375 69.042969 169.3125 70.316406 167.546875 70.316406 C 165.734375 70.316406 164.9375 69 164.9375 63.246094 C 164.9375 57.929688 165.558594 56.171875 167.503906 56.171875 Z M 167.546875 51.957031 C 161.054688 51.957031 158.667969 56.480469 158.667969 63.246094 C 158.667969 70.230469 161.230469 74.535156 167.503906 74.535156 C 173.863281 74.535156 176.378906 70.183594 176.378906 63.246094 C 176.378906 56.480469 173.992188 51.957031 167.546875 51.957031 "/><path style=" stroke:none;fill-rule:nonzero;fill:#c9c9c9;fill-opacity:1;" d="M 176.144531 52.441406 L 181.753906 63.027344 L 175.304688 74.09375 L 180.558594 74.09375 L 184.226562 67.59375 L 187.40625 74.09375 L 193.988281 74.09375 L 187.496094 61.972656 L 193.101562 52.441406 L 187.847656 52.441406 L 185.066406 57.445312 L 182.726562 52.441406 Z M 176.144531 52.441406 "/></g></svg>