<svg xmlns="http://www.w3.org/2000/svg" xmlns:xlink="http://www.w3.org/1999/xlink" width="264" zoomAndPan="magnify" viewBox="0 0 198 112.499997" height="150" preserveAspectRatio="xMidYMid meet" version="1.2"><defs><clipPath id="8c66fdf35e"><path d="M 136 53 L 193.921875 53 L 193.921875 71 L 136 71 Z M 136 53 "/></clipPath><clipPath id="392d7c3ff3"><path d="M 4.265625 46.488281 L 23 46.488281 L 23 66 L 4.265625 66 Z M 4.265625 46.488281 "/></clipPath></defs><g id="eb564c4c04"><path style=" stroke:none;fill-rule:nonzero;fill:#c9c9c9;fill-opacity:1;" d="M 103.175781 48.363281 L 105.414062 48.363281 L 100.972656 65.015625 L 98.785156 65.015625 L 95.207031 54.039062 L 95.109375 54.039062 L 91.527344 65.015625 L 89.347656 65.015625 L 84.71875 48.363281 L 86.949219 48.363281 L 90.460938 61.457031 L 90.554688 61.457031 L 94.15625 50.601562 L 96.15625 50.601562 L 99.761719 61.457031 L 99.855469 61.457031 Z M 103.175781 48.363281 "/><path style=" stroke:none;fill-rule:nonzero;fill:#c9c9c9;fill-opacity:1;" d="M 105.207031 59.316406 C 105.207031 57.566406 105.757812 56.117188 106.859375 54.96875 C 107.976562 53.820312 109.378906 53.246094 111.066406 53.246094 C 112.757812 53.246094 114.152344 53.820312 115.253906 54.96875 C 116.367188 56.117188 116.929688 57.566406 116.929688 59.316406 C 116.929688 61.082031 116.367188 62.535156 115.253906 63.664062 C 114.152344 64.8125 112.757812 65.386719 111.066406 65.386719 C 109.378906 65.386719 107.976562 64.8125 106.859375 63.664062 C 105.757812 62.515625 105.207031 61.066406 105.207031 59.316406 M 107.347656 59.316406 C 107.347656 60.539062 107.703125 61.53125 108.414062 62.292969 C 109.128906 63.050781 110.011719 63.429688 111.066406 63.429688 C 112.125 63.429688 113.003906 63.050781 113.722656 62.292969 C 114.4375 61.53125 114.789062 60.539062 114.789062 59.316406 C 114.789062 58.105469 114.433594 57.125 113.722656 56.363281 C 112.996094 55.589844 112.109375 55.203125 111.066406 55.203125 C 110.027344 55.203125 109.148438 55.589844 108.414062 56.363281 C 107.703125 57.125 107.347656 58.105469 107.347656 59.316406 M 120.582031 65.015625 L 118.441406 65.015625 L 118.441406 53.621094 L 120.488281 53.621094 L 120.488281 55.484375 L 120.582031 55.484375 C 120.800781 54.878906 121.246094 54.363281 121.921875 53.9375 C 122.59375 53.507812 123.257812 53.296875 123.90625 53.296875 C 124.53125 53.296875 125.054688 53.390625 125.488281 53.574219 L 124.832031 55.644531 C 124.566406 55.535156 124.148438 55.484375 123.574219 55.484375 C 122.769531 55.484375 122.066406 55.808594 121.472656 56.460938 C 120.875 57.109375 120.578125 57.871094 120.578125 58.738281 L 120.578125 65.015625 Z M 136.5 65.015625 L 133.921875 65.015625 L 130.359375 59.644531 L 128.621094 61.363281 L 128.621094 65.015625 L 126.480469 65.015625 L 126.480469 48.363281 L 128.621094 48.363281 L 128.621094 58.617188 L 133.546875 53.621094 L 136.292969 53.621094 L 136.292969 53.710938 L 131.851562 58.128906 L 136.5 64.921875 Z M 136.5 65.015625 "/><g clip-rule="nonzero" clip-path="url(#8c66fdf35e)"><path style=" stroke:none;fill-rule:nonzero;fill:#c9c9c9;fill-opacity:1;" d="M 145.753906 61.851562 C 145.753906 62.84375 145.320312 63.683594 144.453125 64.359375 C 143.585938 65.039062 142.492188 65.386719 141.175781 65.386719 C 140.027344 65.386719 139.019531 65.085938 138.152344 64.488281 C 137.304688 63.914062 136.652344 63.089844 136.292969 62.128906 L 138.199219 61.320312 C 138.480469 62.003906 138.886719 62.535156 139.417969 62.914062 C 139.925781 63.285156 140.542969 63.484375 141.175781 63.484375 C 141.859375 63.484375 142.425781 63.335938 142.882812 63.042969 C 143.339844 62.746094 143.566406 62.394531 143.566406 61.996094 C 143.566406 61.269531 143.007812 60.734375 141.890625 60.394531 L 139.9375 59.90625 C 137.71875 59.34375 136.609375 58.277344 136.609375 56.695312 C 136.609375 55.65625 137.03125 54.828125 137.878906 54.195312 C 138.722656 53.566406 139.804688 53.253906 141.121094 53.257812 C 142.128906 53.257812 143.039062 53.5 143.855469 53.976562 C 144.671875 54.457031 145.238281 55.101562 145.5625 55.910156 L 143.65625 56.703125 C 143.4375 56.21875 143.066406 55.824219 142.597656 55.574219 C 142.09375 55.296875 141.53125 55.160156 140.957031 55.164062 C 140.425781 55.15625 139.90625 55.300781 139.457031 55.582031 C 139.015625 55.863281 138.792969 56.203125 138.792969 56.605469 C 138.792969 57.257812 139.40625 57.722656 140.628906 58.003906 L 142.351562 58.445312 C 144.625 58.988281 145.753906 60.128906 145.753906 61.851562 M 153.183594 65.386719 C 152.347656 65.386719 151.585938 65.203125 150.894531 64.847656 C 150.199219 64.492188 149.671875 64.019531 149.296875 63.429688 L 149.203125 63.429688 L 149.296875 65.011719 L 149.296875 70.03125 L 147.160156 70.03125 L 147.160156 53.621094 L 149.203125 53.621094 L 149.203125 55.203125 L 149.296875 55.203125 C 149.667969 54.613281 150.199219 54.140625 150.894531 53.785156 C 151.582031 53.429688 152.34375 53.246094 153.183594 53.246094 C 154.6875 53.246094 155.960938 53.835938 157 55.011719 C 158.066406 56.207031 158.601562 57.640625 158.601562 59.316406 C 158.601562 61.003906 158.066406 62.4375 157 63.617188 C 155.960938 64.796875 154.6875 65.386719 153.183594 65.386719 M 152.839844 63.429688 C 153.863281 63.429688 154.722656 63.042969 155.417969 62.269531 C 156.117188 61.507812 156.464844 60.527344 156.464844 59.316406 C 156.464844 58.125 156.117188 57.136719 155.417969 56.363281 C 154.722656 55.589844 153.863281 55.203125 152.839844 55.203125 C 151.800781 55.203125 150.929688 55.589844 150.234375 56.363281 C 149.550781 57.136719 149.207031 58.125 149.207031 59.316406 C 149.207031 60.527344 149.550781 61.519531 150.234375 62.292969 C 150.929688 63.050781 151.800781 63.429688 152.839844 63.429688 M 164.457031 53.246094 C 166.039062 53.246094 167.285156 53.671875 168.203125 54.515625 C 169.117188 55.359375 169.574219 56.515625 169.574219 57.992188 L 169.574219 65.015625 L 167.527344 65.015625 L 167.527344 63.433594 L 167.433594 63.433594 C 166.550781 64.734375 165.375 65.390625 163.898438 65.390625 C 162.640625 65.390625 161.59375 65.019531 160.746094 64.273438 C 159.902344 63.53125 159.480469 62.601562 159.480469 61.484375 C 159.480469 60.308594 159.925781 59.367188 160.820312 58.671875 C 161.710938 57.972656 162.902344 57.621094 164.386719 57.621094 C 165.660156 57.621094 166.703125 57.855469 167.523438 58.320312 L 167.523438 57.828125 C 167.523438 57.082031 167.230469 56.449219 166.640625 55.933594 C 166.070312 55.421875 165.335938 55.144531 164.574219 55.15625 C 163.375 55.15625 162.433594 55.65625 161.734375 56.667969 L 159.851562 55.484375 C 160.894531 53.992188 162.425781 53.246094 164.457031 53.246094 M 161.691406 61.527344 C 161.691406 62.085938 161.929688 62.550781 162.398438 62.921875 C 162.875 63.292969 163.425781 63.484375 164.058594 63.484375 C 164.957031 63.484375 165.757812 63.148438 166.464844 62.480469 C 167.171875 61.816406 167.523438 61.035156 167.523438 60.132812 C 166.855469 59.605469 165.925781 59.339844 164.734375 59.339844 C 163.867188 59.339844 163.140625 59.550781 162.558594 59.964844 C 161.980469 60.390625 161.691406 60.90625 161.691406 61.527344 M 176.828125 65.386719 C 175.140625 65.386719 173.734375 64.8125 172.621094 63.664062 C 171.519531 62.484375 170.96875 61.035156 170.96875 59.316406 C 170.96875 57.566406 171.519531 56.117188 172.621094 54.96875 C 173.734375 53.820312 175.140625 53.246094 176.828125 53.246094 C 177.992188 53.246094 179.007812 53.539062 179.875 54.121094 C 180.742188 54.699219 181.394531 55.507812 181.828125 56.527344 L 179.878906 57.34375 C 179.277344 55.914062 178.214844 55.203125 176.695312 55.203125 C 175.71875 55.203125 174.875 55.597656 174.160156 56.390625 C 173.464844 57.179688 173.113281 58.152344 173.113281 59.316406 C 173.113281 60.480469 173.460938 61.457031 174.160156 62.242188 C 174.875 63.035156 175.71875 63.429688 176.695312 63.429688 C 178.261719 63.429688 179.363281 62.71875 180 61.289062 L 181.90625 62.101562 C 181.488281 63.125 180.832031 63.929688 179.941406 64.507812 C 179.039062 65.097656 178.003906 65.386719 176.828125 65.386719 M 188.339844 65.386719 C 186.664062 65.386719 185.285156 64.8125 184.203125 63.664062 C 183.121094 62.515625 182.574219 61.066406 182.574219 59.316406 C 182.574219 57.578125 183.101562 56.136719 184.15625 54.980469 C 185.207031 53.820312 186.554688 53.246094 188.203125 53.246094 C 189.890625 53.246094 191.234375 53.792969 192.234375 54.882812 C 193.238281 55.976562 193.734375 57.507812 193.734375 59.476562 L 193.710938 59.710938 L 184.761719 59.710938 C 184.796875 60.824219 185.164062 61.726562 185.878906 62.40625 C 186.589844 63.089844 187.441406 63.429688 188.433594 63.429688 C 189.796875 63.429688 190.867188 62.746094 191.640625 61.386719 L 193.550781 62.316406 C 193.066406 63.25 192.324219 64.03125 191.425781 64.570312 C 190.511719 65.113281 189.484375 65.386719 188.339844 65.386719 M 184.921875 57.945312 L 191.453125 57.945312 C 191.390625 57.152344 191.066406 56.496094 190.488281 55.980469 C 189.910156 55.464844 189.132812 55.203125 188.15625 55.203125 C 187.347656 55.203125 186.65625 55.449219 186.070312 55.949219 C 185.488281 56.441406 185.105469 57.105469 184.921875 57.945312 "/></g><g clip-rule="nonzero" clip-path="url(#392d7c3ff3)"><path style=" stroke:none;fill-rule:nonzero;fill:#c9c9c9;fill-opacity:1;" d="M 13.867188 57.710938 L 13.867188 55.136719 L 22.484375 55.136719 C 22.578125 55.65625 22.628906 56.183594 22.621094 56.714844 C 22.621094 58.648438 22.097656 61.039062 20.390625 62.738281 C 18.738281 64.460938 16.625 65.378906 13.820312 65.378906 C 8.628906 65.378906 4.265625 61.152344 4.265625 55.957031 C 4.265625 50.761719 8.628906 46.535156 13.820312 46.535156 C 16.695312 46.535156 18.738281 47.65625 20.277344 49.128906 L 18.464844 50.945312 C 17.359375 49.910156 15.871094 49.105469 13.824219 49.105469 C 10.035156 49.105469 7.070312 52.160156 7.070312 55.957031 C 7.070312 59.753906 10.035156 62.808594 13.820312 62.808594 C 16.277344 62.808594 17.683594 61.820312 18.574219 60.925781 C 19.304688 60.195312 19.785156 59.144531 19.976562 57.71875 Z M 13.867188 57.710938 "/></g><path style=" stroke:none;fill-rule:nonzero;fill:#c9c9c9;fill-opacity:1;" d="M 35.75 59.3125 C 35.75 62.808594 33.019531 65.378906 29.664062 65.378906 C 26.308594 65.378906 23.578125 62.808594 23.578125 59.3125 C 23.578125 55.796875 26.308594 53.242188 29.664062 53.242188 C 33.019531 53.242188 35.757812 55.796875 35.75 59.3125 M 33.089844 59.3125 C 33.089844 57.128906 31.503906 55.632812 29.664062 55.632812 C 27.824219 55.632812 26.238281 57.128906 26.238281 59.3125 C 26.238281 61.46875 27.824219 62.988281 29.664062 62.988281 C 31.503906 62.988281 33.089844 61.46875 33.089844 59.3125 "/><path style=" stroke:none;fill-rule:nonzero;fill:#c9c9c9;fill-opacity:1;" d="M 49.039062 59.3125 C 49.039062 62.808594 46.304688 65.378906 42.949219 65.378906 C 39.59375 65.378906 36.855469 62.808594 36.855469 59.3125 C 36.855469 55.796875 39.589844 53.242188 42.945312 53.242188 C 46.300781 53.242188 49.039062 55.796875 49.039062 59.3125 M 46.371094 59.3125 C 46.371094 57.128906 44.785156 55.632812 42.945312 55.632812 C 41.105469 55.632812 39.519531 57.128906 39.519531 59.3125 C 39.519531 61.46875 41.105469 62.988281 42.945312 62.988281 C 44.785156 62.988281 46.371094 61.46875 46.371094 59.3125 "/><path style=" stroke:none;fill-rule:nonzero;fill:#c9c9c9;fill-opacity:1;" d="M 61.769531 53.613281 L 61.769531 64.507812 C 61.769531 68.992188 59.125 70.828125 56 70.828125 C 53.058594 70.828125 51.285156 68.847656 50.621094 67.242188 L 52.941406 66.273438 C 53.355469 67.257812 54.367188 68.429688 56 68.429688 C 57.996094 68.429688 59.238281 67.1875 59.238281 64.867188 L 59.238281 63.996094 L 59.148438 63.996094 C 58.550781 64.730469 57.402344 65.375 55.957031 65.375 C 52.921875 65.375 50.144531 62.734375 50.144531 59.332031 C 50.144531 55.90625 52.921875 53.238281 55.957031 53.238281 C 57.402344 53.238281 58.550781 53.882812 59.148438 54.59375 L 59.238281 54.59375 L 59.238281 53.609375 L 61.769531 53.609375 Z M 59.425781 59.335938 C 59.425781 57.195312 58 55.632812 56.183594 55.632812 C 54.347656 55.632812 52.804688 57.195312 52.804688 59.335938 C 52.804688 61.453125 54.34375 62.988281 56.183594 62.988281 C 58 62.988281 59.425781 61.453125 59.425781 59.335938 "/><path style=" stroke:none;fill-rule:nonzero;fill:#c9c9c9;fill-opacity:1;" d="M 63.617188 47.234375 L 66.285156 47.234375 L 66.285156 65.011719 L 63.617188 65.011719 Z M 63.617188 47.234375 "/><path style=" stroke:none;fill-rule:nonzero;fill:#c9c9c9;fill-opacity:1;" d="M 76.578125 61.3125 L 78.644531 62.695312 C 77.980469 63.683594 76.375 65.386719 73.59375 65.386719 C 70.148438 65.386719 67.570312 62.71875 67.570312 59.316406 C 67.570312 55.710938 70.167969 53.246094 73.292969 53.246094 C 76.441406 53.246094 77.980469 55.753906 78.484375 57.109375 L 78.761719 57.796875 L 70.644531 61.152344 C 71.269531 62.371094 72.230469 62.992188 73.589844 62.992188 C 74.945312 62.992188 75.882812 62.324219 76.578125 61.3125 M 70.210938 59.132812 L 75.632812 56.878906 C 75.335938 56.117188 74.4375 55.589844 73.378906 55.589844 C 72.027344 55.589844 70.144531 56.789062 70.210938 59.132812 "/></g></svg>