<svg xmlns="http://www.w3.org/2000/svg" xmlns:xlink="http://www.w3.org/1999/xlink" width="264" zoomAndPan="magnify" viewBox="0 0 198 112.499997" height="150" preserveAspectRatio="xMidYMid meet" version="1.2"><g id="e7d2babcae"><path style=" stroke:none;fill-rule:nonzero;fill:#c9c9c9;fill-opacity:1;" d="M 76.722656 60.28125 C 76.722656 62.921875 76.238281 65.238281 75.273438 67.226562 C 74.304688 69.214844 72.914062 70.746094 71.105469 71.816406 C 69.292969 72.886719 67.207031 73.425781 64.84375 73.425781 C 62.5625 73.425781 60.535156 72.90625 58.757812 71.863281 C 56.976562 70.820312 55.605469 69.335938 54.632812 67.414062 C 53.660156 65.496094 53.171875 63.320312 53.171875 60.886719 C 53.171875 58.269531 53.664062 55.964844 54.648438 53.96875 C 55.632812 51.976562 57.046875 50.445312 58.886719 49.378906 C 60.726562 48.308594 62.859375 47.777344 65.277344 47.777344 C 67.488281 47.777344 69.472656 48.300781 71.226562 49.351562 C 72.980469 50.398438 74.335938 51.875 75.289062 53.777344 C 76.246094 55.679688 76.722656 57.847656 76.722656 60.28125 M 73.664062 60.664062 C 73.664062 57.433594 72.90625 54.914062 71.390625 53.105469 C 69.871094 51.292969 67.761719 50.390625 65.050781 50.390625 C 63.351562 50.390625 61.824219 50.820312 60.476562 51.675781 C 59.128906 52.535156 58.082031 53.753906 57.339844 55.335938 C 56.601562 56.917969 56.230469 58.679688 56.230469 60.628906 C 56.230469 62.609375 56.585938 64.378906 57.296875 65.929688 C 58.011719 67.480469 59.023438 68.679688 60.34375 69.527344 C 61.664062 70.375 63.164062 70.800781 64.84375 70.800781 C 67.597656 70.800781 69.757812 69.902344 71.320312 68.101562 C 72.882812 66.300781 73.664062 63.820312 73.664062 60.664062 M 89.242188 49.265625 C 88.6875 48.953125 88.054688 48.796875 87.347656 48.796875 C 85.355469 48.796875 84.363281 50.050781 84.363281 52.550781 L 84.363281 55.285156 L 88.53125 55.285156 L 88.53125 57.6875 L 84.363281 57.6875 L 84.363281 72.992188 L 81.511719 72.992188 L 81.511719 57.6875 L 78.492188 57.6875 L 78.492188 55.285156 L 81.511719 55.285156 L 81.511719 52.414062 C 81.511719 50.613281 82.046875 49.160156 83.109375 48.054688 C 84.175781 46.945312 85.53125 46.394531 87.175781 46.394531 C 88.042969 46.394531 88.730469 46.496094 89.242188 46.707031 Z M 89.242188 49.265625 "/><path style=" stroke:none;fill-rule:nonzero;fill:#c9c9c9;fill-opacity:1;" d="M 99.058594 49.265625 C 98.503906 48.953125 97.871094 48.796875 97.164062 48.796875 C 95.171875 48.796875 94.179688 50.050781 94.179688 52.550781 L 94.179688 55.285156 L 98.347656 55.285156 L 98.347656 57.6875 L 94.179688 57.6875 L 94.179688 72.992188 L 91.328125 72.992188 L 91.328125 57.6875 L 88.308594 57.6875 L 88.308594 55.285156 L 91.328125 55.285156 L 91.328125 52.414062 C 91.328125 50.613281 91.859375 49.160156 92.925781 48.054688 C 93.992188 46.945312 95.347656 46.394531 96.992188 46.394531 C 97.859375 46.394531 98.546875 46.496094 99.058594 46.707031 Z M 104.308594 48.9375 C 104.308594 49.464844 104.125 49.90625 103.753906 50.257812 C 103.382812 50.609375 102.945312 50.785156 102.433594 50.785156 C 101.914062 50.785156 101.472656 50.617188 101.113281 50.277344 C 100.757812 49.933594 100.578125 49.488281 100.578125 48.933594 C 100.578125 48.4375 100.75 48.007812 101.105469 47.648438 C 101.460938 47.28125 101.902344 47.101562 102.433594 47.101562 C 102.964844 47.101562 103.410156 47.277344 103.773438 47.636719 C 104.128906 47.996094 104.308594 48.425781 104.308594 48.9375 M 103.824219 72.992188 L 100.976562 72.992188 L 100.976562 55.28125 L 103.824219 55.28125 Z M 120.078125 72.179688 C 118.703125 73.011719 117.074219 73.425781 115.199219 73.425781 C 113.578125 73.425781 112.121094 73.054688 110.832031 72.3125 C 109.539062 71.566406 108.535156 70.515625 107.816406 69.152344 C 107.097656 67.792969 106.742188 66.265625 106.742188 64.570312 C 106.742188 61.644531 107.582031 59.289062 109.265625 57.511719 C 110.953125 55.738281 113.195312 54.847656 115.996094 54.847656 C 117.550781 54.847656 118.921875 55.148438 120.113281 55.75 L 120.113281 58.65625 C 118.78125 57.734375 117.371094 57.273438 115.875 57.273438 C 114.035156 57.273438 112.539062 57.925781 111.386719 59.234375 C 110.234375 60.542969 109.660156 62.234375 109.660156 64.3125 C 109.660156 66.378906 110.207031 68.003906 111.300781 69.207031 C 112.394531 70.40625 113.863281 71.003906 115.703125 71.003906 C 117.253906 71.003906 118.714844 70.496094 120.078125 69.480469 Z M 137.578125 64.847656 L 125.023438 64.847656 C 125.070312 66.84375 125.597656 68.367188 126.613281 69.421875 C 127.625 70.476562 129.027344 71.003906 130.820312 71.003906 C 132.835938 71.003906 134.671875 70.359375 136.328125 69.066406 L 136.328125 71.714844 C 134.777344 72.855469 132.714844 73.425781 130.144531 73.425781 C 127.609375 73.425781 125.632812 72.609375 124.203125 70.980469 C 122.78125 69.347656 122.070312 67.089844 122.070312 64.207031 C 122.070312 62.457031 122.425781 60.855469 123.140625 59.410156 C 123.847656 57.960938 124.832031 56.839844 126.082031 56.042969 C 127.332031 55.25 128.722656 54.851562 130.25 54.851562 C 132.550781 54.851562 134.351562 55.597656 135.640625 57.089844 C 136.933594 58.582031 137.578125 60.671875 137.578125 63.359375 Z M 134.664062 62.445312 C 134.636719 60.808594 134.242188 59.535156 133.472656 58.628906 C 132.703125 57.722656 131.617188 57.269531 130.214844 57.269531 C 128.894531 57.269531 127.765625 57.746094 126.828125 58.6875 C 125.890625 59.632812 125.300781 60.886719 125.058594 62.441406 Z M 159.25 65.972656 C 159.25 68.207031 158.445312 70.011719 156.835938 71.378906 C 155.226562 72.742188 153.113281 73.425781 150.496094 73.425781 C 148.121094 73.425781 146.234375 72.976562 144.832031 72.078125 L 144.832031 69.03125 C 146.515625 70.347656 148.433594 71.003906 150.597656 71.003906 C 152.347656 71.003906 153.742188 70.574219 154.777344 69.714844 C 155.8125 68.859375 156.332031 67.695312 156.332031 66.230469 C 156.332031 62.992188 154.015625 61.371094 149.386719 61.371094 L 147.320312 61.371094 L 147.320312 58.964844 L 149.28125 58.964844 C 153.378906 58.964844 155.429688 57.445312 155.429688 54.398438 C 155.429688 51.585938 153.867188 50.179688 150.738281 50.179688 C 148.980469 50.179688 147.328125 50.769531 145.789062 51.945312 L 145.789062 49.195312 C 147.375 48.25 149.261719 47.777344 151.453125 47.777344 C 153.511719 47.777344 155.175781 48.320312 156.445312 49.410156 C 157.710938 50.5 158.34375 51.929688 158.34375 53.691406 C 158.34375 56.953125 156.6875 59.054688 153.378906 59.988281 L 153.378906 60.054688 C 155.136719 60.253906 156.558594 60.886719 157.632812 61.960938 C 158.710938 63.03125 159.25 64.371094 159.25 65.972656 M 177.984375 65.125 C 177.984375 66.695312 177.648438 68.117188 176.972656 69.394531 C 176.292969 70.675781 175.359375 71.667969 174.164062 72.371094 C 172.972656 73.074219 171.636719 73.425781 170.152344 73.425781 C 167.664062 73.425781 165.710938 72.429688 164.292969 70.433594 C 162.875 68.441406 162.164062 65.65625 162.164062 62.078125 C 162.164062 59.242188 162.585938 56.738281 163.425781 54.566406 C 164.265625 52.390625 165.453125 50.71875 166.992188 49.542969 C 168.53125 48.363281 170.308594 47.777344 172.324219 47.777344 C 174.039062 47.777344 175.414062 48.011719 176.457031 48.488281 L 176.457031 51.167969 C 175.171875 50.511719 173.816406 50.183594 172.394531 50.183594 C 170.195312 50.183594 168.433594 51.164062 167.105469 53.132812 C 165.78125 55.097656 165.117188 57.71875 165.117188 60.992188 L 165.1875 60.992188 C 166.332031 58.652344 168.226562 57.480469 170.867188 57.480469 C 173.019531 57.480469 174.746094 58.179688 176.042969 59.582031 C 177.339844 60.980469 177.984375 62.828125 177.984375 65.125 M 175.070312 65.488281 C 175.070312 63.757812 174.640625 62.390625 173.792969 61.386719 C 172.941406 60.386719 171.753906 59.886719 170.222656 59.886719 C 168.835938 59.886719 167.664062 60.371094 166.714844 61.347656 C 165.765625 62.316406 165.292969 63.5 165.292969 64.882812 C 165.292969 66.625 165.765625 68.082031 166.707031 69.25 C 167.652344 70.421875 168.839844 71.003906 170.277344 71.003906 C 171.699219 71.003906 172.855469 70.496094 173.742188 69.472656 C 174.625 68.453125 175.070312 67.125 175.070312 65.488281 M 194.746094 65.417969 C 194.746094 67.828125 193.945312 69.765625 192.339844 71.230469 C 190.738281 72.695312 188.597656 73.425781 185.921875 73.425781 C 183.605469 73.425781 181.886719 73.082031 180.765625 72.386719 L 180.765625 69.378906 C 182.457031 70.464844 184.1875 71.003906 185.957031 71.003906 C 187.71875 71.003906 189.136719 70.515625 190.210938 69.535156 C 191.289062 68.554688 191.828125 67.238281 191.828125 65.59375 C 191.828125 63.976562 191.28125 62.710938 190.195312 61.796875 C 189.105469 60.878906 187.527344 60.421875 185.457031 60.421875 C 183.796875 60.421875 182.390625 60.488281 181.234375 60.625 L 182.085938 48.191406 L 193.601562 48.191406 L 193.601562 50.75 L 184.550781 50.75 L 184.046875 58.03125 L 186.339844 57.945312 C 188.933594 57.945312 190.984375 58.597656 192.488281 59.902344 C 193.992188 61.203125 194.746094 63.042969 194.746094 65.417969 M 40.609375 77.808594 L 40.605469 77.804688 L 40.605469 43.433594 L 28.238281 39.878906 L 6.011719 48.191406 L 5.953125 48.203125 L 5.957031 73.058594 L 13.542969 70.101562 L 13.542969 49.878906 L 28.238281 46.378906 L 28.238281 76.109375 L 5.96875 73.058594 L 28.238281 81.246094 L 28.238281 81.253906 L 40.605469 77.847656 L 40.605469 77.808594 Z M 40.609375 77.808594 "/></g></svg>