<svg xmlns="http://www.w3.org/2000/svg" xmlns:xlink="http://www.w3.org/1999/xlink" width="264" zoomAndPan="magnify" viewBox="0 0 198 112.499997" height="150" preserveAspectRatio="xMidYMid meet" version="1.2"><defs><clipPath id="d04cda4712"><path d="M 46.375 1.460938 L 155.390625 1.460938 L 155.390625 110.476562 L 46.375 110.476562 Z M 46.375 1.460938 "/></clipPath></defs><g id="9cdfd6f57b"><g clip-rule="nonzero" clip-path="url(#d04cda4712)"><path style=" stroke:none;fill-rule:nonzero;fill:#c9c9c9;fill-opacity:1;" d="M 100.886719 110.476562 C 130.988281 110.476562 155.390625 86.070312 155.390625 55.96875 C 155.390625 25.859375 130.992188 1.460938 100.886719 1.460938 C 70.78125 1.460938 46.375 25.859375 46.375 55.96875 C 46.375 86.070312 70.78125 110.476562 100.886719 110.476562 "/></g><path style=" stroke:none;fill-rule:nonzero;fill:#ffffff;fill-opacity:1;" d="M 72.933594 55.953125 L 82.21875 46.625 C 82.453125 46.386719 82.601562 46.101562 82.664062 45.773438 C 82.730469 45.445312 82.695312 45.125 82.566406 44.816406 C 82.4375 44.507812 82.234375 44.257812 81.953125 44.074219 C 81.675781 43.886719 81.367188 43.792969 81.03125 43.792969 C 80.585938 43.792969 80.167969 43.96875 79.851562 44.289062 L 70.574219 53.574219 L 61.257812 44.269531 C 60.933594 43.949219 60.539062 43.789062 60.082031 43.792969 C 59.746094 43.792969 59.4375 43.886719 59.15625 44.074219 C 58.875 44.261719 58.671875 44.515625 58.542969 44.828125 C 58.414062 45.140625 58.386719 45.460938 58.453125 45.792969 C 58.523438 46.121094 58.675781 46.40625 58.917969 46.644531 L 68.199219 55.9375 L 58.921875 65.242188 C 58.597656 65.566406 58.417969 65.988281 58.417969 66.4375 C 58.417969 66.65625 58.460938 66.867188 58.546875 67.074219 C 58.628906 67.277344 58.75 67.457031 58.90625 67.613281 C 59.0625 67.769531 59.242188 67.890625 59.445312 67.976562 C 59.648438 68.058594 59.863281 68.101562 60.082031 68.101562 C 60.527344 68.101562 60.941406 67.933594 61.257812 67.617188 L 70.558594 58.308594 L 79.828125 67.582031 C 80.15625 67.921875 80.578125 68.101562 81.03125 68.101562 C 81.253906 68.101562 81.464844 68.058594 81.667969 67.972656 C 81.875 67.890625 82.054688 67.769531 82.210938 67.613281 C 82.363281 67.457031 82.484375 67.277344 82.570312 67.074219 C 82.652344 66.867188 82.695312 66.65625 82.695312 66.4375 C 82.695312 65.992188 82.527344 65.574219 82.210938 65.261719 L 72.933594 55.941406 Z M 128.125 55.949219 C 128.125 56.351562 128.199219 56.738281 128.355469 57.109375 C 128.507812 57.480469 128.726562 57.808594 129.011719 58.09375 C 129.292969 58.375 129.621094 58.59375 129.992188 58.75 C 130.363281 58.902344 130.75 58.980469 131.152344 58.980469 C 132.8125 58.980469 134.167969 57.621094 134.167969 55.953125 C 134.167969 54.28125 132.8125 52.921875 131.148438 52.921875 C 129.484375 52.921875 128.128906 54.28125 128.128906 55.949219 Z M 122.394531 55.949219 C 122.394531 51.117188 126.320312 47.179688 131.148438 47.179688 C 135.96875 47.179688 139.902344 51.117188 139.902344 55.949219 C 139.902344 60.785156 135.972656 64.722656 131.148438 64.722656 C 126.320312 64.722656 122.394531 60.789062 122.394531 55.949219 Z M 118.949219 55.949219 C 118.949219 62.6875 124.425781 68.171875 131.148438 68.171875 C 137.875 68.171875 143.347656 62.691406 143.347656 55.953125 C 143.347656 49.21875 137.875 43.734375 131.148438 43.734375 C 124.421875 43.734375 118.949219 49.214844 118.949219 55.953125 Z M 118.085938 43.941406 L 117.574219 43.941406 C 116.035156 43.941406 114.554688 44.425781 113.316406 45.382812 C 113.148438 44.644531 112.476562 44.074219 111.683594 44.074219 C 111.464844 44.074219 111.253906 44.117188 111.050781 44.203125 C 110.847656 44.285156 110.671875 44.40625 110.515625 44.5625 C 110.359375 44.71875 110.242188 44.894531 110.160156 45.097656 C 110.074219 45.300781 110.035156 45.511719 110.035156 45.734375 L 110.042969 66.3125 C 110.042969 67.226562 110.792969 67.96875 111.699219 67.96875 C 111.921875 67.96875 112.132812 67.925781 112.335938 67.84375 C 112.539062 67.757812 112.71875 67.636719 112.875 67.480469 C 113.03125 67.328125 113.152344 67.148438 113.238281 66.941406 C 113.320312 66.738281 113.363281 66.527344 113.363281 66.308594 L 113.363281 53.652344 C 113.363281 49.4375 113.753906 47.730469 117.355469 47.28125 C 117.695312 47.238281 118.054688 47.246094 118.058594 47.246094 C 119.042969 47.210938 119.746094 46.53125 119.746094 45.613281 C 119.746094 45.390625 119.703125 45.175781 119.617188 44.972656 C 119.53125 44.769531 119.410156 44.589844 119.253906 44.433594 C 119.097656 44.277344 118.917969 44.15625 118.714844 44.070312 C 118.507812 43.988281 118.296875 43.945312 118.074219 43.945312 L 118.082031 43.941406 Z M 86.140625 53.941406 C 86.140625 53.894531 86.144531 53.84375 86.148438 53.800781 C 87.113281 49.976562 90.570312 47.148438 94.6875 47.148438 C 98.855469 47.148438 102.34375 50.039062 103.261719 53.933594 L 86.136719 53.933594 Z M 106.667969 53.628906 C 105.949219 50.230469 104.089844 47.4375 101.265625 45.644531 C 97.125 43.011719 91.664062 43.15625 87.671875 46.007812 C 84.414062 48.324219 82.53125 52.125 82.53125 56.035156 C 82.53125 57.015625 82.652344 58.007812 82.894531 58.984375 C 84.125 63.828125 88.285156 67.5 93.246094 68.109375 C 94.71875 68.289062 96.15625 68.207031 97.632812 67.820312 C 98.910156 67.503906 100.144531 66.992188 101.28125 66.257812 C 102.460938 65.5 103.445312 64.496094 104.40625 63.296875 C 104.421875 63.273438 104.441406 63.257812 104.460938 63.234375 C 105.125 62.410156 105 61.230469 104.273438 60.675781 C 103.65625 60.203125 102.625 60.011719 101.816406 61.054688 C 101.640625 61.304688 101.445312 61.5625 101.234375 61.816406 C 100.589844 62.53125 99.785156 63.222656 98.828125 63.757812 C 97.546875 64.441406 96.183594 64.785156 94.734375 64.792969 C 89.894531 64.738281 87.304688 61.351562 86.382812 58.941406 C 86.222656 58.480469 86.097656 58.011719 86.011719 57.535156 L 85.988281 57.28125 L 103.359375 57.28125 C 105.734375 57.226562 107.015625 55.542969 106.660156 53.621094 Z M 106.667969 53.628906 "/></g></svg>