<svg xmlns="http://www.w3.org/2000/svg" xmlns:xlink="http://www.w3.org/1999/xlink" width="264" zoomAndPan="magnify" viewBox="0 0 198 112.499997" height="150" preserveAspectRatio="xMidYMid meet" version="1.2"><defs><clipPath id="26b751e799"><path d="M 6 14.113281 L 191.804688 14.113281 L 191.804688 99 L 6 99 Z M 6 14.113281 "/></clipPath></defs><g id="ae86530749"><g clip-rule="nonzero" clip-path="url(#26b751e799)"><path style=" stroke:none;fill-rule:nonzero;fill:#c9c9c9;fill-opacity:1;" d="M 6.328125 80.863281 L 25.542969 51.097656 L 8.59375 51.097656 C 8.433594 50.160156 8.371094 49.21875 8.40625 48.269531 C 8.375 47.324219 8.4375 46.382812 8.59375 45.445312 L 35.90625 45.445312 L 36.265625 46.386719 L 16.863281 76.15625 L 34.96875 76.15625 C 35.125 77.089844 35.1875 78.03125 35.15625 78.980469 C 35.195312 79.867188 35.132812 80.746094 34.96875 81.617188 L 6.519531 81.617188 Z M 61.527344 57.878906 C 61.632812 56.800781 61.503906 55.75 61.140625 54.726562 C 60.78125 53.707031 60.21875 52.808594 59.453125 52.039062 C 58.542969 51.414062 57.554688 50.957031 56.488281 50.664062 C 55.421875 50.375 54.339844 50.265625 53.238281 50.34375 C 51.660156 50.367188 50.089844 50.492188 48.527344 50.722656 C 47.121094 50.925781 45.738281 51.238281 44.382812 51.664062 C 43.398438 49.90625 42.960938 48.019531 43.066406 46.011719 C 44.78125 45.433594 46.539062 45.054688 48.339844 44.878906 C 50.210938 44.566406 52.097656 44.441406 53.992188 44.503906 C 55.917969 44.382812 57.800781 44.597656 59.648438 45.148438 C 61.492188 45.699219 63.1875 46.550781 64.730469 47.703125 C 67.179688 49.777344 68.5 53.355469 68.5 58.066406 L 68.5 80.859375 L 62.46875 81.992188 C 60.101562 82.367188 57.707031 82.554688 55.308594 82.554688 C 53.226562 82.574219 51.160156 82.382812 49.09375 81.992188 C 47.371094 81.644531 45.800781 80.953125 44.382812 79.917969 C 43.070312 78.984375 42.0625 77.792969 41.367188 76.339844 C 40.566406 74.671875 40.1875 72.914062 40.238281 71.0625 C 40.15625 69.175781 40.59375 67.417969 41.554688 65.789062 C 42.328125 64.214844 43.460938 62.957031 44.945312 62.023438 C 46.472656 61.039062 48.105469 60.285156 49.84375 59.761719 C 51.742188 59.21875 53.710938 58.96875 55.683594 59.007812 C 56.945312 58.960938 58.199219 59.023438 59.449219 59.195312 C 60.390625 59.195312 61.148438 59.382812 61.902344 59.382812 L 61.902344 57.875 Z M 61.527344 64.664062 C 60.636719 64.613281 59.757812 64.496094 58.890625 64.300781 C 57.757812 64.300781 56.816406 64.113281 56.066406 64.113281 C 53.625 63.96875 51.363281 64.535156 49.28125 65.808594 C 48.527344 66.390625 47.949219 67.117188 47.550781 67.980469 C 47.152344 68.847656 46.972656 69.757812 47.019531 70.707031 C 46.96875 71.226562 46.988281 71.746094 47.082031 72.257812 C 47.175781 72.773438 47.339844 73.261719 47.574219 73.730469 C 47.804688 74.195312 48.101562 74.621094 48.457031 75.003906 C 48.808594 75.386719 49.210938 75.714844 49.660156 75.984375 C 50.476562 76.445312 51.355469 76.695312 52.296875 76.738281 C 53.167969 76.886719 54.046875 76.949219 54.933594 76.925781 C 56.070312 76.957031 57.199219 76.894531 58.324219 76.738281 L 61.335938 76.171875 L 61.335938 64.679688 Z M 76.222656 45.445312 C 76.785156 45.445312 77.164062 45.257812 77.726562 45.257812 L 80.742188 45.257812 C 81.304688 45.257812 81.683594 45.445312 82.246094 45.445312 C 82.351562 45.75 82.414062 46.066406 82.433594 46.386719 C 82.433594 46.953125 82.621094 47.328125 82.621094 47.894531 C 82.621094 48.457031 82.808594 49.023438 82.808594 49.589844 C 82.804688 49.914062 82.871094 50.234375 82.996094 50.53125 L 84.691406 48.269531 C 85.429688 47.539062 86.246094 46.910156 87.144531 46.386719 C 89.371094 45.15625 91.757812 44.527344 94.300781 44.503906 C 96.285156 44.480469 98.292969 44.863281 100.140625 45.636719 C 101.984375 46.378906 103.550781 47.507812 104.832031 49.027344 C 106.21875 50.707031 107.222656 52.589844 107.847656 54.679688 C 108.648438 57.320312 109.023438 60.019531 108.976562 62.78125 C 109.050781 64.109375 108.996094 65.4375 108.8125 66.757812 C 108.628906 68.078125 108.320312 69.367188 107.882812 70.628906 C 107.445312 71.886719 106.894531 73.09375 106.222656 74.246094 C 105.550781 75.398438 104.773438 76.472656 103.890625 77.472656 C 100.5 81.054688 95.773438 82.75 89.574219 82.75 C 88.503906 82.78125 87.433594 82.71875 86.371094 82.5625 C 85.242188 82.371094 84.300781 82.183594 83.546875 81.996094 L 83.546875 98.761719 C 82.984375 98.761719 82.417969 98.949219 81.664062 98.949219 L 78.273438 98.949219 C 77.707031 98.949219 77.140625 98.761719 76.578125 98.761719 L 76.578125 45.445312 Z M 83.191406 75.96875 C 84.109375 76.304688 85.050781 76.558594 86.015625 76.722656 C 87.265625 76.894531 88.519531 76.957031 89.78125 76.910156 C 91.40625 76.949219 92.984375 76.691406 94.472656 76.15625 C 95.890625 75.667969 97.085938 74.851562 98.050781 73.703125 C 99.136719 72.410156 99.953125 70.964844 100.503906 69.371094 C 101.152344 67.351562 101.464844 65.277344 101.445312 63.15625 C 101.5625 59.953125 100.875 56.941406 99.371094 54.113281 C 99.011719 53.550781 98.585938 53.042969 98.089844 52.597656 C 97.59375 52.148438 97.046875 51.777344 96.449219 51.476562 C 95.851562 51.179688 95.226562 50.964844 94.570312 50.835938 C 93.914062 50.707031 93.253906 50.667969 92.585938 50.722656 C 91.425781 50.722656 90.296875 50.914062 89.195312 51.285156 C 88.109375 51.695312 87.167969 52.324219 86.371094 53.167969 C 85.460938 54.09375 84.769531 55.160156 84.296875 56.371094 C 83.722656 57.882812 83.472656 59.445312 83.542969 61.0625 L 83.542969 75.945312 Z M 117.476562 50.890625 L 112.789062 50.890625 C 112.617188 50.46875 112.554688 50.027344 112.601562 49.574219 L 112.601562 46.5625 C 112.601562 45.996094 112.789062 45.617188 112.789062 45.242188 L 124.28125 45.242188 L 124.28125 81.789062 C 123.714844 81.789062 123.148438 81.976562 122.582031 81.976562 L 119.191406 81.976562 C 118.628906 81.976562 118.0625 81.789062 117.496094 81.789062 Z M 139.519531 65.394531 C 139.707031 69.351562 140.652344 72.367188 142.535156 74.0625 C 143.734375 75.085938 145.085938 75.839844 146.585938 76.328125 C 148.089844 76.820312 149.625 77.003906 151.199219 76.886719 C 154.476562 76.90625 157.734375 76.332031 160.808594 75.191406 C 161.265625 76.019531 161.582031 76.898438 161.75 77.828125 C 161.964844 78.820312 162.09375 79.824219 162.128906 80.839844 C 160.5 81.570312 158.804688 82.070312 157.042969 82.347656 C 154.992188 82.738281 152.894531 82.929688 150.828125 82.914062 C 147.914062 83.027344 145.085938 82.589844 142.347656 81.597656 C 140.152344 80.566406 138.203125 79.183594 136.507812 77.453125 C 134.921875 75.695312 133.792969 73.6875 133.117188 71.421875 C 132.339844 68.96875 131.964844 66.457031 131.984375 63.886719 C 131.996094 61.347656 132.308594 58.835938 132.925781 56.351562 C 133.582031 54.121094 134.648438 52.113281 136.128906 50.324219 C 137.625 48.640625 139.414062 47.253906 141.402344 46.179688 C 143.90625 44.984375 146.542969 44.421875 149.316406 44.484375 C 150.382812 44.4375 151.441406 44.511719 152.488281 44.703125 C 153.539062 44.898438 154.550781 45.207031 155.53125 45.632812 C 156.511719 46.054688 157.429688 46.582031 158.289062 47.21875 C 159.148438 47.851562 159.925781 48.570312 160.617188 49.378906 C 161.976562 50.914062 162.917969 52.675781 163.445312 54.65625 C 164.152344 56.84375 164.472656 59.140625 164.386719 61.4375 L 164.386719 63.511719 C 164.386719 64.269531 164.199219 64.832031 164.199219 65.398438 Z M 157.605469 60.121094 C 157.617188 58.835938 157.429688 57.578125 157.042969 56.351562 C 156.652344 55.230469 156.152344 54.164062 155.535156 53.152344 C 154.832031 52.191406 153.953125 51.441406 152.898438 50.890625 C 151.703125 50.324219 150.449219 50.074219 149.128906 50.136719 C 147.890625 50.074219 146.695312 50.273438 145.546875 50.734375 C 144.394531 51.195312 143.390625 51.875 142.535156 52.773438 C 140.828125 54.929688 139.886719 57.378906 139.710938 60.121094 Z M 172.300781 45.429688 C 172.863281 45.429688 173.242188 45.242188 173.808594 45.242188 L 176.820312 45.242188 C 177.382812 45.242188 177.761719 45.429688 178.324219 45.429688 C 178.570312 46.355469 178.695312 47.296875 178.703125 48.253906 C 178.855469 49.25 178.917969 50.257812 178.890625 51.265625 C 179.867188 49.554688 181.183594 48.175781 182.847656 47.121094 C 184.746094 45.917969 186.816406 45.355469 189.0625 45.425781 L 190.195312 45.425781 C 190.53125 45.375 190.84375 45.4375 191.136719 45.613281 C 191.136719 45.972656 191.324219 46.554688 191.324219 46.929688 L 191.324219 48.4375 C 191.355469 49.011719 191.292969 49.578125 191.136719 50.132812 C 191.136719 50.699219 190.949219 51.265625 190.949219 51.828125 C 190.589844 51.828125 190.195312 51.640625 189.816406 51.640625 L 188.875 51.640625 C 187.652344 51.628906 186.457031 51.816406 185.296875 52.207031 C 184.078125 52.578125 183.011719 53.207031 182.09375 54.089844 C 181.03125 55.160156 180.277344 56.414062 179.835938 57.855469 C 179.238281 59.824219 178.988281 61.832031 179.078125 63.886719 L 179.078125 81.992188 C 178.515625 81.992188 177.949219 82.179688 177.382812 82.179688 L 173.992188 82.179688 C 173.429688 82.179688 172.675781 81.992188 172.109375 81.992188 L 172.109375 45.445312 Z M 131.042969 23.96875 L 124.089844 23.96875 L 128.988281 19.074219 C 128.625 18.507812 128.234375 18.128906 127.855469 17.566406 C 127.3125 17.171875 126.8125 16.734375 126.347656 16.25 L 121.4375 21.140625 L 121.4375 14.339844 C 120.816406 14.183594 120.191406 14.121094 119.554688 14.152344 C 118.914062 14.113281 118.289062 14.175781 117.667969 14.339844 L 117.667969 21.3125 L 112.582031 16.222656 C 111.992188 16.5625 111.488281 17.003906 111.074219 17.542969 C 110.714844 18.105469 110.132812 18.484375 109.757812 19.050781 L 114.65625 23.945312 L 107.851562 23.945312 L 107.664062 25.832031 C 107.621094 26.472656 107.683594 27.109375 107.851562 27.730469 L 114.824219 27.730469 L 109.734375 32.820312 C 110.480469 33.9375 111.441406 34.902344 112.558594 35.644531 L 117.457031 30.746094 L 117.457031 37.71875 C 118.078125 37.875 118.703125 37.9375 119.34375 37.90625 C 119.980469 37.945312 120.609375 37.882812 121.226562 37.71875 L 121.226562 30.746094 L 126.125 35.644531 C 126.714844 35.304688 127.214844 34.867188 127.628906 34.324219 C 128.117188 33.867188 128.554688 33.363281 128.945312 32.820312 L 124.089844 27.925781 L 131.058594 27.925781 C 131.214844 27.304688 131.277344 26.679688 131.246094 26.042969 C 131.285156 25.339844 131.222656 24.648438 131.058594 23.964844 Z M 122.375 25.855469 C 122.355469 26.6875 122.230469 27.503906 121.996094 28.304688 C 121.21875 28.609375 120.382812 28.738281 119.546875 28.664062 C 118.710938 28.648438 117.894531 28.519531 117.097656 28.285156 C 116.789062 27.511719 116.664062 26.671875 116.734375 25.835938 C 116.753906 25.003906 116.878906 24.1875 117.113281 23.386719 C 117.890625 23.078125 118.730469 22.953125 119.5625 23.023438 C 120.398438 23.042969 121.214844 23.167969 122.015625 23.402344 C 122.230469 24.207031 122.359375 25.023438 122.390625 25.855469 Z M 122.375 25.855469 "/></g></g></svg>